# xmcd CD database file
#
# Track frame offsets:
#	150
#	11020
#	25953
#	41026
#	56513
#	66980
#	80115
#	92462
#	107174
#	119523
#	134712
#	147424
#
# Disc length: 2118 seconds
#
# Revision: 1
# Processed by: cddbd v1.5.2PL0 Copyright (c) Steve Scherf et al.
# Submitted via: CDex 1.51
#
DISCID=b108440c
DTITLE=Louis Jordan - Somebody Up There Digs Me
DYEAR=1900
DGENRE=Blues
TTITLE0=Caldonia
TTITLE1=Is You Is Or Is You Ain't Ma Baby
TTITLE2=Run Joe
TTITLE3=Early In The Morning
TTITLE4=Choo Choo Ch Boogie
TTITLE5=Knock Me A Kiss
TTITLE6=Let The Good Times Roll
TTITLE7=Don't Let The Sun Catch You Crying
TTITLE8=Beware Brother Beware
TTITLE9=I'm Gonna Move To The Outskirts Of Town
TTITLE10=Salt Pork West Virginia
TTITLE11=Ain't Nobody Here But Us Chickens
EXTD=
EXTT0=
EXTT1=
EXTT2=
EXTT3=
EXTT4=
EXTT5=
EXTT6=
EXTT7=
EXTT8=
EXTT9=
EXTT10=
EXTT11=
PLAYORDER=
